<?xml version="1.0" encoding="iso-8859-1"?>
<!-- Generator: Adobe Illustrator 19.0.0, SVG Export Plug-In . SVG Version: 6.00 Build 0)  -->
<svg xmlns="http://www.w3.org/2000/svg" xmlns:xlink="http://www.w3.org/1999/xlink" version="1.1" id="Capa_1" x="0px" y="0px" viewBox="0 0 512 512" style="enable-background:new 0 0 512 512;" xml:space="preserve" width="512px" height="512px">
<g>
	<g>
		<path d="M501.511,93.893c-3.692-4.77-9.116-8.565-14.519-11.139c-5.824-2.774-12.272-4.226-18.722-4.226H43.73    c-6.218,0-12.422,1.346-18.078,3.928c-2.829,1.291-5.53,2.88-8.024,4.739c-2.457,1.832-4.978,3.935-6.858,6.373    C4.071,101.254,0,111.287,0,122.259v219.631c0,4.337,3.515,7.853,7.853,7.853c4.338,0,7.853-3.516,7.853-7.853V122.259    c0-4.575,1.109-8.893,3.061-12.712l210.679,159.125c8.26,6.238,18.139,9.355,28.018,9.354c9.955-0.001,19.911-3.166,28.202-9.492    l146.776-111.99c3.448-2.63,4.11-7.558,1.48-11.006c-2.631-3.447-7.559-4.112-11.007-1.48l-146.776,111.99    c-10.939,8.346-26.247,8.385-37.227,0.092L29.619,98.061c4.261-2.491,9.173-3.827,14.111-3.827h424.54    c5.11,0,10.217,1.429,14.576,4.098l-30.76,23.469c-3.448,2.63-4.11,7.558-1.48,11.006c2.631,3.447,7.558,4.111,11.007,1.48    l31.846-24.299c1.813,3.708,2.835,7.872,2.835,12.271v267.484c0,15.453-12.572,28.025-28.025,28.025H43.73    c-15.453,0-28.025-12.572-28.025-28.025v-19.174c0-4.337-3.515-7.853-7.853-7.853S0,366.231,0,370.567v19.174    c0,24.113,19.618,43.731,43.73,43.731h424.54c24.112,0,43.73-19.618,43.73-43.731V122.259    C512,111.904,508.043,101.535,501.511,93.893z" fill="#404041"/>
	</g>
</g>
<g>
</g>
<g>
</g>
<g>
</g>
<g>
</g>
<g>
</g>
<g>
</g>
<g>
</g>
<g>
</g>
<g>
</g>
<g>
</g>
<g>
</g>
<g>
</g>
<g>
</g>
<g>
</g>
<g>
</g>
</svg>
