<svg id="Layer_1" data-name="Layer 1" xmlns="http://www.w3.org/2000/svg" viewBox="0 0 357.33 63.77"><defs><style>.cls-1,.cls-3{fill:#414042;}.cls-2{fill:#e07425;}.cls-3{font-size:52.77px;font-family:BigNoodleTitling, BigNoodleTitling;}.cls-4{letter-spacing:-0.02em;}.cls-5{letter-spacing:-0.01em;}.cls-6{letter-spacing:0em;}.cls-7,.cls-8{fill:#df7426;}.cls-7{letter-spacing:-0.04em;}</style></defs><title>logo</title><path class="cls-1" d="M65.44,15.71a10.82,10.82,0,0,1,1.51-.1,10.3,10.3,0,0,1,1.24.08,31.85,31.85,0,0,0-54.88,0,10.3,10.3,0,0,1,1.24-.08,10.73,10.73,0,0,1,1.51.1l.14,0a29.36,29.36,0,0,1,49.1,0l.14,0"/><path class="cls-1" d="M67.37,48.16A10.93,10.93,0,0,1,65.45,48l-.09,0a29.36,29.36,0,0,1-49.2,0l-.09,0a11,11,0,0,1-1.92.18,7.64,7.64,0,0,1-.81,0,31.85,31.85,0,0,0,54.85,0,7.48,7.48,0,0,1-.81,0"/><path class="cls-2" d="M8.17,28.77a.45.45,0,0,0-.35-.44L6,28.06a2.09,2.09,0,0,0-.79,0,.76.76,0,0,0-.44.4,8.47,8.47,0,0,0,.13,6.64,1.08,1.08,0,0,0,.5.58,2.3,2.3,0,0,0,.85,0l1.66-.24A.41.41,0,0,0,8.19,35c-.1-1.16-.13-2.26-.13-3.34s.12-1.94.11-2.88"/><path class="cls-2" d="M15.52,35.11h0c-.05-1.14-.08-2.27-.08-3.45s0-2.3.08-3.44v-.13a80.5,80.5,0,0,1,1.24-10.81c0-.23,0-.55-.59-.64a10.65,10.65,0,0,0-1.38-.08c-3.48,0-4.61,1.59-4.95,2.91a.1.1,0,0,1,0,0,.07.07,0,0,1,0,0c-.28,1.52-.51,3.17-.68,4.9v.06c-.05.56-.08,1.13-.12,1.69s-.1,1.21-.14,1.83c0,1.19-.09,2.41-.09,3.62,0,2.45.12,4.86.35,7.18.18,1.83.45,3.62.78,5.37h0v0c.61,2.48,2.76,3,4.46,3a10.16,10.16,0,0,0,1.76-.16c.44-.08.8-.27.69-.76a62.61,62.61,0,0,1-1.32-11.2"/><path class="cls-2" d="M26.46,49.66q-.35-1.08-.67-2.34a68.64,68.64,0,0,1-1.6-15.58,68.69,68.69,0,0,1,1.6-15.59q.32-1.26.67-2.34c.12-.39.3-1.09-.74-1.22l-.83-.07-.23,0c-.78-.06-1.38-.09-1.9-.09-2.26,0-3.44.61-4.07,2.11v0s0,0,0,0h0a.84.84,0,0,0-.06.16s0,.09,0,.12,0,.11,0,.19,0,.15-.06.22l-.08.23-.15.58v0a68.83,68.83,0,0,0-1.62,15.61A81.59,81.59,0,0,0,17,40.11a54.4,54.4,0,0,0,1.2,7.24c.09.39.2.73.29,1.05h0c0,.14.07.29.14.47.61,1.64,2.23,2.47,4.83,2.47.32,0,.67,0,1,0,.52,0,1-.12,1.38-.19h0l.38-.07c.32-.07.5-.52.32-1-.06-.15-.1-.29-.15-.43"/><path class="cls-2" d="M29.31,28.91A6.73,6.73,0,0,0,28.73,32a7.08,7.08,0,0,0,.56,3,.66.66,0,0,0,.59.31H51.62a.67.67,0,0,0,.6-.31,7.1,7.1,0,0,0,.56-3,6.76,6.76,0,0,0-.59-3.07.64.64,0,0,0-.6-.31H29.91a.64.64,0,0,0-.6.31"/><path class="cls-2" d="M30.26,36.45h-.72l-.17,0c-1-.16-1.66-2.14-1.66-4.45s.64-4.26,1.66-4.42l.17,0h.84c.23,0,.42-.12.4-.56,0-.15,0-.29,0-.45-.37-7-1.42-11.81-2.59-11.81-.36,0-.71.43-1.05,1.32a18.27,18.27,0,0,0-.72,2.76,77.23,77.23,0,0,0-1,13.08,78.85,78.85,0,0,0,1,13,18.3,18.3,0,0,0,.72,2.78c.33.89.7,1.35,1.06,1.35,1.17,0,2.12-5.12,2.6-12,0-.09,0-.15,0-.22,0-.35-.32-.4-.52-.4"/><path class="cls-2" d="M76.78,28.47a.77.77,0,0,0-.44-.41,2.1,2.1,0,0,0-.79,0l-1.87.27a.44.44,0,0,0-.35.44c0,.94.11,1.91.11,2.88s0,2.18-.13,3.34a.41.41,0,0,0,.33.48l1.65.24a2.3,2.3,0,0,0,.85,0,1.08,1.08,0,0,0,.5-.58,8.45,8.45,0,0,0,.13-6.64"/><path class="cls-2" d="M72.5,26.2c-.05-.56-.08-1.13-.12-1.69v-.06c-.17-1.72-.4-3.37-.68-4.9a.07.07,0,0,1,0,0,.12.12,0,0,1,0,0c-.34-1.33-1.47-2.91-4.95-2.91a10.6,10.6,0,0,0-1.38.08c-.63.09-.63.42-.59.65A81.07,81.07,0,0,1,66,28.08v.13c.05,1.14.08,2.27.08,3.45S66,34,66,35.1h0a63.22,63.22,0,0,1-1.32,11.2c-.11.49.26.68.69.76a10.31,10.31,0,0,0,1.75.16c1.7,0,3.86-.52,4.47-3v0h0c.33-1.75.6-3.54.78-5.37.22-2.32.35-4.73.35-7.18,0-1.22,0-2.43-.09-3.62,0-.62-.1-1.23-.14-1.83"/><path class="cls-2" d="M63.26,16.12v0l-.15-.58L63,15.28c0-.08,0-.15-.07-.22s0-.12,0-.19l0-.12a1.36,1.36,0,0,0-.06-.16h0s0,0,0,0v0C62.18,13,61,12.4,58.73,12.4c-.52,0-1.12,0-1.89.09l-.23,0c-.27,0-.55,0-.83.07-1,.12-.86.82-.74,1.22q.35,1.08.67,2.34a68.46,68.46,0,0,1,1.6,15.59,68.43,68.43,0,0,1-1.6,15.58c-.21.84-.43,1.63-.67,2.35,0,.14-.09.28-.14.43-.19.47,0,.92.32,1l.37.07h0c.4.06.86.14,1.38.19.35,0,.69,0,1,0,2.61,0,4.23-.83,4.84-2.47.06-.19.1-.34.13-.47h0c.09-.32.2-.67.29-1.05a54.78,54.78,0,0,0,1.2-7.24,82.16,82.16,0,0,0,.42-8.38,68.75,68.75,0,0,0-1.62-15.61"/><path class="cls-2" d="M56.08,31.88a77.45,77.45,0,0,0-1-13.08A17.85,17.85,0,0,0,54.39,16c-.35-.88-.7-1.31-1-1.31-1.17,0-2.22,4.82-2.59,11.81,0,.16,0,.3,0,.46,0,.44.17.56.4.56H52l.17,0c1,.16,1.66,2.1,1.66,4.42s-.64,4.29-1.66,4.45h-.89c-.2,0-.54.06-.52.4,0,.06,0,.13,0,.22.48,6.87,1.44,12,2.6,12,.35,0,.73-.46,1.06-1.35a18,18,0,0,0,.72-2.78,79.12,79.12,0,0,0,1-13"/><text class="cls-3" transform="translate(86.5 51.37)">sport<tspan class="cls-4" x="95.35" y="0">s</tspan><tspan class="cls-5" x="113.29" y="0">y</tspan><tspan class="cls-6" x="131.23" y="0">stem</tspan><tspan class="cls-5" x="207.58" y="0">s</tspan><tspan x="226.05" y="0">.</tspan><tspan class="cls-7" x="234.59" y="0">l</tspan><tspan class="cls-8" x="247.42" y="0">v</tspan></text></svg>