<?xml version="1.0" encoding="utf-8"?>
<!-- Generator: Adobe Illustrator 16.0.0, SVG Export Plug-In . SVG Version: 6.00 Build 0)  -->
<!DOCTYPE svg PUBLIC "-//W3C//DTD SVG 1.1//EN" "http://www.w3.org/Graphics/SVG/1.1/DTD/svg11.dtd">
<svg version="1.1" id="Layer_1" xmlns="http://www.w3.org/2000/svg" xmlns:xlink="http://www.w3.org/1999/xlink" x="0px" y="0px"
	 width="288.666px" height="69.5px" viewBox="0 0 288.666 69.5" enable-background="new 0 0 288.666 69.5" xml:space="preserve">
<g>
	<g>
		<path fill="#414042" d="M61.336,15.707c0.426-0.063,0.963-0.096,1.514-0.096c0.449,0,0.854,0.03,1.238,0.076
			C58.53,6.308,48.316,0,36.646,0S14.76,6.308,9.203,15.687c0.381-0.046,0.791-0.076,1.238-0.076c0.559,0,1.082,0.033,1.512,0.096
			c0.049,0.009,0.094,0.022,0.14,0.033C17.357,7.762,26.394,2.481,36.646,2.481s19.289,5.28,24.551,13.258
			C61.246,15.729,61.289,15.716,61.336,15.707"/>
		<path fill="#414042" d="M63.26,48.158c-0.613,0-1.262-0.059-1.92-0.177c-0.035-0.007-0.062-0.019-0.092-0.026
			c-5.258,8.021-14.316,13.336-24.602,13.336c-10.287,0-19.347-5.315-24.602-13.336c-0.031,0.007-0.061,0.019-0.092,0.026
			c-0.662,0.118-1.309,0.177-1.922,0.177c-0.279,0-0.547-0.013-0.81-0.041c5.563,9.362,15.769,15.654,27.425,15.654
			c11.655,0,21.859-6.292,27.42-15.654C63.811,48.145,63.541,48.158,63.26,48.158"/>
		<path fill="#E07425" d="M4.062,28.768c-0.003-0.374-0.347-0.442-0.347-0.442l-1.869-0.268c0,0-0.528-0.086-0.787,0.011
			c-0.193,0.072-0.367,0.215-0.444,0.405C0.209,29.454,0,30.538,0,31.648c0,1.225,0.26,2.405,0.744,3.468
			c0.116,0.254,0.254,0.46,0.504,0.581c0.219,0.104,0.845,0.014,0.845,0.014l1.655-0.24c0,0,0.369-0.052,0.334-0.479
			c-0.096-1.162-0.134-2.263-0.134-3.344C3.948,30.679,4.07,29.711,4.062,28.768"/>
		<path fill="#E07425" d="M11.41,35.11v-0.014c-0.055-1.139-0.076-2.269-0.076-3.447c0-1.176,0.021-2.305,0.076-3.445v-0.015v-0.11
			c0.16-3.985,0.69-7.696,1.244-10.813c0.041-0.229,0.041-0.552-0.586-0.645c-0.369-0.05-0.852-0.084-1.38-0.084
			c-3.483,0-4.614,1.585-4.946,2.915c0,0.012,0,0.023-0.014,0.05c0,0.011,0,0.036-0.014,0.049c-0.283,1.525-0.509,3.174-0.68,4.898
			l-0.014,0.062c-0.051,0.558-0.075,1.126-0.123,1.687c-0.039,0.606-0.1,1.212-0.138,1.833c-0.05,1.191-0.085,2.406-0.085,3.62
			c0,2.446,0.123,4.862,0.346,7.179c0.185,1.826,0.449,3.623,0.783,5.368l0.01,0.014v0.026c0.609,2.479,2.765,3,4.463,3
			c0.671,0,1.293-0.081,1.756-0.164c0.436-0.081,0.801-0.271,0.693-0.764C12.01,43.108,11.559,39.257,11.41,35.11"/>
		<path fill="#E07425" d="M22.356,49.66c-0.235-0.719-0.46-1.502-0.671-2.345c-1.04-4.264-1.599-9.793-1.599-15.584
			c0-5.789,0.559-11.321,1.599-15.587c0.211-0.843,0.436-1.623,0.671-2.343c0.124-0.395,0.301-1.095-0.739-1.22
			c-0.285-0.033-0.565-0.052-0.834-0.069l-0.227-0.025c-0.779-0.061-1.375-0.087-1.898-0.087c-2.264,0-3.441,0.605-4.074,2.107
			v0.041c0,0.01-0.014,0.01-0.014,0.023v0.01c-0.024,0.05-0.049,0.113-0.061,0.162c-0.016,0.036-0.027,0.088-0.041,0.124
			c-0.012,0.062-0.035,0.11-0.047,0.187c-0.024,0.074-0.036,0.148-0.064,0.224c-0.025,0.074-0.05,0.16-0.074,0.234l-0.148,0.583
			v0.023c-1.039,4.268-1.623,9.81-1.623,15.612c0,2.901,0.148,5.741,0.424,8.381c0.271,2.653,0.68,5.11,1.199,7.24
			c0.088,0.385,0.197,0.732,0.287,1.053v0.012v0.014c0.035,0.136,0.072,0.285,0.137,0.472c0.607,1.636,2.229,2.467,4.833,2.467
			c0.325,0,0.669-0.011,1.02-0.039c0.52-0.05,0.978-0.124,1.376-0.186h0.024c0.136-0.026,0.261-0.049,0.375-0.073
			c0.322-0.067,0.499-0.516,0.315-0.986C22.446,49.942,22.402,49.798,22.356,49.66"/>
		<path fill="#E07425" d="M25.205,28.908c-0.27,0.484-0.584,1.525-0.584,3.072c0,1.494,0.297,2.536,0.559,3.049
			c0.059,0.119,0.262,0.308,0.596,0.308c1.377,0,6.179-0.004,10.871-0.007c4.691,0.003,9.492,0.007,10.87,0.007
			c0.335,0,0.534-0.188,0.595-0.308c0.262-0.513,0.562-1.555,0.562-3.049c0-1.547-0.32-2.588-0.587-3.072
			c-0.051-0.092-0.209-0.31-0.6-0.31l-10.84,0.004l-10.84-0.004C25.412,28.598,25.256,28.816,25.205,28.908"/>
		<path fill="#E07425" d="M26.157,36.446h-0.718c-0.058,0-0.117-0.003-0.175-0.015c-1.013-0.162-1.656-2.14-1.656-4.452
			c0-2.318,0.644-4.262,1.656-4.419c0.058-0.012,0.117-0.016,0.175-0.016c0,0,0.605,0.002,0.837,0
			c0.229-0.002,0.415-0.117,0.4-0.561c-0.005-0.154-0.026-0.291-0.032-0.455c-0.365-6.989-1.42-11.809-2.592-11.809
			c-0.358,0-0.705,0.431-1.054,1.315c-0.245,0.657-0.483,1.561-0.719,2.764c-0.608,3.272-0.962,8.032-0.962,13.081
			c0,4.995,0.354,9.743,0.95,13.043c0.237,1.204,0.474,2.121,0.722,2.776c0.334,0.894,0.704,1.351,1.062,1.351
			c1.17,0,2.122-5.116,2.604-11.982c0.007-0.091,0.016-0.153,0.021-0.217C26.699,36.504,26.359,36.446,26.157,36.446"/>
		<path fill="#E07425" d="M72.678,28.474c-0.076-0.19-0.256-0.332-0.445-0.405c-0.258-0.097-0.789-0.009-0.789-0.009l-1.867,0.266
			c0,0-0.346,0.069-0.346,0.443c-0.008,0.944,0.111,1.911,0.111,2.881c0,1.082-0.036,2.181-0.132,3.343
			c-0.037,0.428,0.334,0.479,0.334,0.479l1.651,0.241c0,0,0.63,0.09,0.85-0.016c0.247-0.119,0.384-0.327,0.5-0.58
			c0.486-1.062,0.748-2.244,0.748-3.467C73.293,30.538,73.083,29.454,72.678,28.474"/>
		<path fill="#E07425" d="M68.395,26.195c-0.051-0.559-0.076-1.129-0.125-1.687l-0.012-0.062c-0.174-1.724-0.397-3.373-0.683-4.898
			c-0.013-0.013-0.013-0.038-0.013-0.049c-0.01-0.026-0.01-0.038-0.01-0.049c-0.336-1.328-1.466-2.915-4.949-2.915
			c-0.528,0-1.012,0.035-1.379,0.084c-0.631,0.093-0.631,0.417-0.588,0.646c0.554,3.116,1.082,6.828,1.247,10.812v0.11v0.015
			c0.051,1.14,0.075,2.269,0.075,3.446s-0.024,2.307-0.075,3.446v0.014c-0.151,4.147-0.604,8-1.317,11.198
			c-0.113,0.493,0.26,0.684,0.689,0.765c0.469,0.082,1.088,0.164,1.755,0.164c1.7,0,3.858-0.522,4.466-3v-0.026l0.013-0.014
			c0.333-1.746,0.595-3.543,0.78-5.369c0.223-2.316,0.348-4.732,0.348-7.177c0-1.216-0.037-2.431-0.086-3.621
			C68.492,27.408,68.434,26.802,68.395,26.195"/>
		<path fill="#E07425" d="M59.156,16.119v-0.023l-0.148-0.584c-0.025-0.074-0.051-0.16-0.074-0.234
			c-0.025-0.076-0.041-0.149-0.066-0.223c-0.011-0.078-0.033-0.125-0.045-0.188c-0.015-0.037-0.029-0.087-0.039-0.124
			c-0.012-0.049-0.039-0.111-0.059-0.162V14.57c0-0.011-0.017-0.011-0.017-0.023v-0.04c-0.63-1.502-1.808-2.107-4.079-2.107
			c-0.52,0-1.115,0.025-1.894,0.086l-0.227,0.025c-0.271,0.017-0.548,0.035-0.833,0.07c-1.038,0.124-0.863,0.824-0.74,1.219
			c0.234,0.721,0.457,1.501,0.666,2.344c1.044,4.266,1.603,9.797,1.603,15.586c0,5.791-0.559,11.32-1.603,15.585
			c-0.209,0.842-0.432,1.626-0.666,2.345c-0.045,0.138-0.09,0.282-0.145,0.427c-0.186,0.468-0.007,0.919,0.317,0.985
			c0.112,0.025,0.237,0.048,0.373,0.074h0.022c0.396,0.061,0.856,0.136,1.378,0.186c0.347,0.026,0.693,0.038,1.015,0.038
			c2.605,0,4.23-0.83,4.836-2.466c0.061-0.187,0.102-0.336,0.135-0.472v-0.015v-0.011c0.09-0.321,0.201-0.668,0.289-1.053
			c0.52-2.131,0.928-4.587,1.203-7.241c0.272-2.639,0.422-5.479,0.422-8.381C60.781,25.929,60.195,20.386,59.156,16.119"/>
		<path fill="#E07425" d="M51.975,31.879c0-5.05-0.358-9.808-0.964-13.081c-0.236-1.203-0.474-2.107-0.722-2.765
			c-0.347-0.883-0.695-1.314-1.05-1.314c-1.172,0-2.224,4.82-2.591,11.809c-0.01,0.164-0.031,0.3-0.035,0.456
			c-0.014,0.443,0.172,0.558,0.402,0.559c0.23,0.002,0.838,0,0.838,0c0.059,0,0.117,0.005,0.171,0.016
			c1.013,0.159,1.655,2.103,1.655,4.42c0,2.313-0.643,4.29-1.655,4.453c-0.054,0.012-0.112,0.015-0.171,0.015h-0.718
			c-0.204,0-0.544,0.057-0.522,0.404c0.004,0.063,0.015,0.125,0.021,0.217c0.479,6.867,1.435,11.983,2.604,11.983
			c0.354,0,0.729-0.458,1.062-1.351c0.249-0.656,0.486-1.573,0.723-2.777C51.616,41.623,51.975,36.875,51.975,31.879"/>
	</g>
	<g>
		<path fill="#414042" d="M92.842,18.076v33.296h-5.066V18.076h-4.854v-4.59h14.773v4.59H92.842z"/>
		<path fill="#414042" d="M100.598,13.485h9.92c3.869,0,5.804,2.163,5.804,6.49v9.339c0,3.307-1.002,5.4-3.008,6.279l3.536,15.777
			h-4.802l-3.324-15.302h-3.061v15.302h-5.065V13.485z M105.663,31.743h3.324c1.512,0,2.269-0.915,2.269-2.744V20.82
			c0-1.829-0.757-2.744-2.269-2.744h-3.324V31.743z"/>
		<path fill="#414042" d="M120.542,51.372V13.485h12.559v4.59h-7.492v11.503h6.648v4.591h-6.648v12.611h7.492v4.591H120.542z"/>
		<path fill="#414042" d="M147.242,31.795v-18.31h5.065v37.886h-5.065v-7.545l-5.435-17.255v24.8h-5.066V13.485h5.066
			L147.242,31.795z"/>
		<path fill="#414042" d="M161.857,51.372h-5.065V19.976c0-4.327,2.022-6.49,6.068-6.49h3.799c4.045,0,6.068,2.163,6.068,6.49
			v31.396h-5.065V37.494h-5.805V51.372z M167.662,32.903V20.292c0-1.478-0.738-2.216-2.216-2.216h-1.372
			c-1.478,0-2.217,0.739-2.217,2.216v12.611H167.662z"/>
		<path fill="#414042" d="M181.223,46.781h8.548v4.591h-14.035l-0.37-1.794l7.968-31.449h-7.123v-4.644h11.45l1.056,2.163
			L181.223,46.781z M183.28,7.787l2.217-3.061h3.904l-4.538,5.91h-3.166l-4.538-5.91h3.905L183.28,7.787z"/>
		<path fill="#414042" d="M192.673,51.372V13.485h5.066v37.886H192.673z"/>
		<path fill="#414042" d="M202.486,51.372V13.485h12.559v4.59h-7.492v11.503h6.648v4.591h-6.648v12.611h7.492v4.591H202.486z"/>
		<path fill="#414042" d="M218.686,13.485h9.921c3.869,0,5.804,2.163,5.804,6.49v9.339c0,3.307-1.002,5.4-3.008,6.279l3.536,15.777
			h-4.802l-3.324-15.302h-3.061v15.302h-5.066V13.485z M223.752,31.743h3.324c1.512,0,2.269-0.915,2.269-2.744V20.82
			c0-1.829-0.757-2.744-2.269-2.744h-3.324V31.743z"/>
		<path fill="#414042" d="M238.631,51.372V13.485h5.066v37.886H238.631z"/>
		<path fill="#414042" d="M253.035,44.934v6.438h-5.382v-6.438H253.035z"/>
		<path fill="#DF7426" d="M269.023,51.372h-12.031V13.485h5.066v33.295h6.965V51.372z"/>
		<path fill="#DF7426" d="M286.226,13.485l-6.121,37.886h-6.016l-6.121-37.886h5.013l4.116,28.916l4.116-28.916H286.226z"/>
	</g>
	<g>
		<path fill="#A7A9AC" d="M87.023,54.854h2.45c1.083,0,1.624,0.574,1.624,1.722v2.982c0,1.139-0.537,1.708-1.609,1.708h-1.121v3.64
			h-1.344V54.854z M88.367,60.048h0.854c0.354,0,0.532-0.195,0.532-0.588v-2.8c0-0.392-0.201-0.588-0.603-0.588h-0.784V60.048z"/>
		<path fill="#A7A9AC" d="M91.812,54.854h2.632c1.027,0,1.54,0.574,1.54,1.722v2.479c0,0.877-0.266,1.433-0.798,1.666l0.938,4.186
			H94.85l-0.882-4.06h-0.812v4.06h-1.344V54.854z M93.155,59.698h0.883c0.4,0,0.602-0.242,0.602-0.728V56.8
			c0-0.485-0.201-0.728-0.602-0.728h-0.883V59.698z"/>
		<path fill="#A7A9AC" d="M98.307,64.906c-1.082,0-1.624-0.569-1.624-1.708v-6.622c0-1.148,0.537-1.722,1.61-1.722h1.288
			c1.073,0,1.61,0.574,1.61,1.722v6.622c0,1.139-0.542,1.708-1.624,1.708H98.307z M98.629,63.688h0.687
			c0.354,0,0.531-0.196,0.531-0.588v-6.44c0-0.392-0.2-0.588-0.602-0.588h-0.63c-0.393,0-0.588,0.196-0.588,0.588v6.44
			C98.027,63.492,98.228,63.688,98.629,63.688z"/>
		<path fill="#A7A9AC" d="M105.14,59.124v1.218h-1.765v4.564h-1.344V54.854h3.332v1.218h-1.988v3.052H105.14z"/>
		<path fill="#A7A9AC" d="M105.923,64.906V54.854h3.332v1.218h-1.988v3.052h1.765v1.218h-1.765v3.347h1.988v1.218H105.923z"/>
		<path fill="#A7A9AC" d="M112.447,57.556v-0.882c0-0.401-0.196-0.602-0.588-0.602h-0.21c-0.383,0-0.574,0.201-0.574,0.602v1.666
			c0,0.187,0.037,0.312,0.112,0.378c0.074,0.064,0.195,0.148,0.363,0.252l1.274,0.686c0.28,0.159,0.479,0.282,0.595,0.371
			c0.117,0.089,0.208,0.196,0.273,0.322s0.098,0.366,0.098,0.721v2.142c0,1.13-0.541,1.694-1.624,1.694h-0.826
			c-1.073,0-1.609-0.616-1.609-1.848v-0.504h1.344v0.546c0,0.392,0.2,0.588,0.602,0.588h0.238c0.354,0,0.532-0.196,0.532-0.588
			v-1.708c0-0.187-0.037-0.312-0.112-0.378c-0.074-0.065-0.195-0.149-0.363-0.252l-1.274-0.715c-0.28-0.148-0.483-0.274-0.609-0.378
			c-0.126-0.103-0.217-0.235-0.272-0.398c-0.057-0.163-0.084-0.376-0.084-0.637v-2.059c0-1.148,0.536-1.722,1.609-1.722h0.841
			c1.073,0,1.609,0.574,1.609,1.722v0.98H112.447z"/>
		<path fill="#A7A9AC" d="M114.561,64.906V54.854h1.344v10.052H114.561z"/>
		<path fill="#A7A9AC" d="M118.368,64.906c-1.082,0-1.624-0.569-1.624-1.708v-6.622c0-1.148,0.537-1.722,1.61-1.722h1.288
			c1.073,0,1.61,0.574,1.61,1.722v6.622c0,1.139-0.542,1.708-1.624,1.708H118.368z M118.69,63.688h0.687
			c0.354,0,0.531-0.196,0.531-0.588v-6.44c0-0.392-0.2-0.588-0.602-0.588h-0.63c-0.393,0-0.588,0.196-0.588,0.588v6.44
			C118.089,63.492,118.289,63.688,118.69,63.688z"/>
		<path fill="#A7A9AC" d="M124.879,59.712v-4.857h1.344v10.052h-1.344v-2.002l-1.442-4.578v6.58h-1.344V54.854h1.344L124.879,59.712
			z"/>
		<path fill="#A7A9AC" d="M128.406,64.906h-1.345v-8.33c0-1.148,0.537-1.722,1.61-1.722h1.008c1.073,0,1.61,0.574,1.61,1.722v8.33
			h-1.344v-3.682h-1.54V64.906z M129.946,60.006V56.66c0-0.392-0.196-0.588-0.588-0.588h-0.364c-0.393,0-0.588,0.196-0.588,0.588
			v3.346H129.946z"/>
		<path fill="#A7A9AC" d="M135.322,64.906h-3.192V54.854h1.344v8.834h1.849V64.906z"/>
		<path fill="#A7A9AC" d="M135.742,64.906V54.854h1.344v10.052H135.742z"/>
		<path fill="#A7A9AC" d="M137.996,64.906V54.854h3.332v1.218h-1.988v3.052h1.765v1.218h-1.765v3.347h1.988v1.218H137.996z"/>
		<path fill="#A7A9AC" d="M148.202,54.854v8.147c0,1.27-0.541,1.904-1.624,1.904h-1.134c-1.073,0-1.61-0.64-1.61-1.918v-8.134h1.344
			v8.176c0,0.438,0.196,0.658,0.588,0.658h0.547c0.363,0,0.546-0.22,0.546-0.658v-8.176H148.202z"/>
		<path fill="#A7A9AC" d="M151.897,59.712v-4.857h1.344v10.052h-1.344v-2.002l-1.442-4.578v6.58h-1.344V54.854h1.344L151.897,59.712
			z"/>
		<path fill="#A7A9AC" d="M158.771,60.763l1.246-5.908h1.483v10.052h-1.344l0.14-6.58l-1.008,4.76h-1.036l-1.008-4.76l0.14,6.58
			h-1.344V54.854h1.484L158.771,60.763z"/>
		<path fill="#A7A9AC" d="M163.686,64.906h-1.345v-8.33c0-1.148,0.537-1.722,1.61-1.722h1.008c1.073,0,1.61,0.574,1.61,1.722v8.33
			h-1.344v-3.682h-1.54V64.906z M165.226,60.006V56.66c0-0.392-0.196-0.588-0.588-0.588h-0.364c-0.393,0-0.588,0.196-0.588,0.588
			v3.346H165.226z"/>
		<path fill="#A7A9AC" d="M166.919,63.688h0.883c0.4,0,0.602-0.243,0.602-0.729v-8.105h1.344v8.357c0,1.13-0.518,1.694-1.554,1.694
			h-1.274V63.688z"/>
		<path fill="#A7A9AC" d="M171.932,64.906h-1.345v-8.33c0-1.148,0.537-1.722,1.61-1.722h1.008c1.073,0,1.61,0.574,1.61,1.722v8.33
			h-1.344v-3.682h-1.54V64.906z M173.472,60.006V56.66c0-0.392-0.196-0.588-0.588-0.588h-0.364c-0.393,0-0.588,0.196-0.588,0.588
			v3.346H173.472z"/>
		<path fill="#A7A9AC" d="M178.23,57.556v-0.882c0-0.401-0.196-0.602-0.588-0.602h-0.21c-0.383,0-0.574,0.201-0.574,0.602v1.666
			c0,0.187,0.037,0.312,0.112,0.378c0.074,0.064,0.195,0.148,0.363,0.252l1.274,0.686c0.28,0.159,0.479,0.282,0.595,0.371
			c0.117,0.089,0.208,0.196,0.273,0.322s0.098,0.366,0.098,0.721v2.142c0,1.13-0.541,1.694-1.624,1.694h-0.826
			c-1.073,0-1.609-0.616-1.609-1.848v-0.504h1.344v0.546c0,0.392,0.2,0.588,0.602,0.588h0.238c0.354,0,0.532-0.196,0.532-0.588
			v-1.708c0-0.187-0.037-0.312-0.112-0.378c-0.074-0.065-0.195-0.149-0.363-0.252l-1.274-0.715c-0.28-0.148-0.483-0.274-0.609-0.378
			c-0.126-0.103-0.217-0.235-0.272-0.398c-0.057-0.163-0.084-0.376-0.084-0.637v-2.059c0-1.148,0.536-1.722,1.609-1.722h0.841
			c1.073,0,1.609,0.574,1.609,1.722v0.98H178.23z"/>
		<path fill="#A7A9AC" d="M184.377,56.072v8.834h-1.345v-8.834h-1.288v-1.218h3.92v1.218H184.377z"/>
		<path fill="#A7A9AC" d="M186.084,54.854h2.632c1.027,0,1.54,0.574,1.54,1.722v2.479c0,0.877-0.266,1.433-0.798,1.666l0.938,4.186
			h-1.274l-0.882-4.06h-0.812v4.06h-1.344V54.854z M187.428,59.698h0.883c0.4,0,0.602-0.242,0.602-0.728V56.8
			c0-0.485-0.201-0.728-0.602-0.728h-0.883V59.698z"/>
		<path fill="#A7A9AC" d="M191.026,64.906V54.854h3.332v1.218h-1.988v3.052h1.765v1.218h-1.765v3.347h1.988v1.218H191.026z"/>
		<path fill="#A7A9AC" d="M197.76,59.712v-4.857h1.344v10.052h-1.344v-2.002l-1.442-4.578v6.58h-1.344V54.854h1.344L197.76,59.712z"
			/>
		<path fill="#A7A9AC" d="M201.288,64.906h-1.345v-8.33c0-1.148,0.537-1.722,1.61-1.722h1.008c1.073,0,1.61,0.574,1.61,1.722v8.33
			h-1.344v-3.682h-1.54V64.906z M202.828,60.006V56.66c0-0.392-0.196-0.588-0.588-0.588h-0.364c-0.393,0-0.588,0.196-0.588,0.588
			v3.346H202.828z"/>
		<path fill="#A7A9AC" d="M206.076,63.688h2.268v1.218h-3.724l-0.099-0.476l2.114-8.344h-1.89v-1.232h3.038l0.279,0.574
			L206.076,63.688z M206.622,53.342l0.588-0.812h1.036l-1.204,1.568h-0.84l-1.204-1.568h1.036L206.622,53.342z"/>
		<path fill="#A7A9AC" d="M208.764,64.906V54.854h1.344v10.052H208.764z"/>
		<path fill="#A7A9AC" d="M211.018,64.906V54.854h3.332v1.218h-1.988v3.052h1.765v1.218h-1.765v3.347h1.988v1.218H211.018z"/>
		<path fill="#A7A9AC" d="M214.966,54.854h2.632c1.027,0,1.54,0.574,1.54,1.722v2.479c0,0.877-0.266,1.433-0.798,1.666l0.938,4.186
			h-1.274l-0.882-4.06h-0.812v4.06h-1.344V54.854z M216.31,59.698h0.883c0.4,0,0.602-0.242,0.602-0.728V56.8
			c0-0.485-0.201-0.728-0.602-0.728h-0.883V59.698z"/>
		<path fill="#A7A9AC" d="M219.907,64.906V54.854h1.344v10.052H219.907z"/>
		<path fill="#A7A9AC" d="M221.965,66.572l0.645-1.666h-0.658V63.17h1.498v1.736l-0.672,1.666H221.965z"/>
		<path fill="#A7A9AC" d="M227.383,64.906h-1.344V54.854h1.344V64.906z M230.478,64.906h-1.345l-1.68-4.914v-0.084l1.4-5.054h1.231
			l-1.414,4.998L230.478,64.906z"/>
		<path fill="#A7A9AC" d="M232.171,64.906c-1.082,0-1.624-0.569-1.624-1.708v-6.622c0-1.148,0.537-1.722,1.61-1.722h1.288
			c1.073,0,1.61,0.574,1.61,1.722v6.622c0,1.139-0.542,1.708-1.624,1.708H232.171z M232.493,63.688h0.687
			c0.354,0,0.531-0.196,0.531-0.588v-6.44c0-0.392-0.2-0.588-0.602-0.588h-0.63c-0.393,0-0.588,0.196-0.588,0.588v6.44
			C231.892,63.492,232.092,63.688,232.493,63.688z"/>
		<path fill="#A7A9AC" d="M238.681,59.712v-4.857h1.344v10.052h-1.344v-2.002l-1.442-4.578v6.58h-1.344V54.854h1.344L238.681,59.712
			z"/>
		<path fill="#A7A9AC" d="M243.511,57.556v-0.882c0-0.401-0.196-0.602-0.588-0.602h-0.21c-0.383,0-0.574,0.201-0.574,0.602v1.666
			c0,0.187,0.037,0.312,0.112,0.378c0.074,0.064,0.195,0.148,0.363,0.252l1.274,0.686c0.28,0.159,0.479,0.282,0.595,0.371
			c0.117,0.089,0.208,0.196,0.273,0.322s0.098,0.366,0.098,0.721v2.142c0,1.13-0.541,1.694-1.624,1.694h-0.826
			c-1.073,0-1.609-0.616-1.609-1.848v-0.504h1.344v0.546c0,0.392,0.2,0.588,0.602,0.588h0.238c0.354,0,0.532-0.196,0.532-0.588
			v-1.708c0-0.187-0.037-0.312-0.112-0.378c-0.074-0.065-0.195-0.149-0.363-0.252l-1.274-0.715c-0.28-0.148-0.483-0.274-0.609-0.378
			c-0.126-0.103-0.217-0.235-0.272-0.398c-0.057-0.163-0.084-0.376-0.084-0.637v-2.059c0-1.148,0.536-1.722,1.609-1.722h0.841
			c1.073,0,1.609,0.574,1.609,1.722v0.98H243.511z"/>
		<path fill="#A7A9AC" d="M249.993,54.854v8.147c0,1.27-0.541,1.904-1.624,1.904h-1.134c-1.073,0-1.61-0.64-1.61-1.918v-8.134h1.344
			v8.176c0,0.438,0.196,0.658,0.588,0.658h0.547c0.363,0,0.546-0.22,0.546-0.658v-8.176H249.993z"/>
		<path fill="#A7A9AC" d="M254.095,64.906h-3.192V54.854h1.344v8.834h1.849V64.906z"/>
		<path fill="#A7A9AC" d="M255.957,56.072v8.834h-1.345v-8.834h-1.288v-1.218h3.92v1.218H255.957z"/>
		<path fill="#A7A9AC" d="M258.938,64.906h-1.345v-8.33c0-1.148,0.537-1.722,1.61-1.722h1.008c1.073,0,1.61,0.574,1.61,1.722v8.33
			h-1.344v-3.682h-1.54V64.906z M260.479,60.006V56.66c0-0.392-0.196-0.588-0.588-0.588h-0.364c-0.393,0-0.588,0.196-0.588,0.588
			v3.346H260.479z"/>
		<path fill="#A7A9AC" d="M266.681,62.555v0.644c0,1.139-0.537,1.708-1.61,1.708h-0.868c-1.073,0-1.61-0.569-1.61-1.708v-6.636
			c0-1.138,0.537-1.708,1.61-1.708h0.868c1.073,0,1.61,0.569,1.61,1.708v1.134h-1.345V56.66c0-0.392-0.2-0.588-0.602-0.588h-0.267
			c-0.354,0-0.531,0.196-0.531,0.588v6.44c0,0.392,0.177,0.588,0.531,0.588h0.337c0.354,0,0.531-0.196,0.531-0.588v-0.546H266.681z"
			/>
		<path fill="#A7A9AC" d="M267.38,64.906V54.854h1.344v10.052H267.38z"/>
		<path fill="#A7A9AC" d="M269.144,63.688h0.883c0.4,0,0.602-0.243,0.602-0.729v-8.105h1.344v8.357c0,1.13-0.518,1.694-1.554,1.694
			h-1.274V63.688z"/>
		<path fill="#A7A9AC" d="M274.156,64.906h-1.345v-8.33c0-1.148,0.537-1.722,1.61-1.722h1.008c1.073,0,1.61,0.574,1.61,1.722v8.33
			h-1.344v-3.682h-1.54V64.906z M275.696,60.006V56.66c0-0.392-0.196-0.588-0.588-0.588h-0.364c-0.393,0-0.588,0.196-0.588,0.588
			v3.346H275.696z"/>
		<path fill="#A7A9AC" d="M280.456,57.556v-0.882c0-0.401-0.196-0.602-0.588-0.602h-0.21c-0.383,0-0.574,0.201-0.574,0.602v1.666
			c0,0.187,0.037,0.312,0.112,0.378c0.074,0.064,0.195,0.148,0.363,0.252l1.274,0.686c0.28,0.159,0.479,0.282,0.595,0.371
			c0.117,0.089,0.208,0.196,0.273,0.322s0.098,0.366,0.098,0.721v2.142c0,1.13-0.541,1.694-1.624,1.694h-0.826
			c-1.073,0-1.609-0.616-1.609-1.848v-0.504h1.344v0.546c0,0.392,0.2,0.588,0.602,0.588h0.238c0.354,0,0.532-0.196,0.532-0.588
			v-1.708c0-0.187-0.037-0.312-0.112-0.378c-0.074-0.065-0.195-0.149-0.363-0.252l-1.274-0.715c-0.28-0.148-0.483-0.274-0.609-0.378
			c-0.126-0.103-0.217-0.235-0.272-0.398c-0.057-0.163-0.084-0.376-0.084-0.637v-2.059c0-1.148,0.536-1.722,1.609-1.722h0.841
			c1.073,0,1.609,0.574,1.609,1.722v0.98H280.456z"/>
	</g>
</g>
</svg>
